<svg xmlns="http://www.w3.org/2000/svg" width="800" height="800" viewBox="0 0 100 100"><defs><linearGradient id="a" x1="50" x2="50" y1="40" y2="100" gradientUnits="userSpaceOnUse"><stop offset="0" style="stop-color:#ccc;stop-opacity:1"/><stop offset=".7" style="stop-color:#000;stop-opacity:1"/></linearGradient><linearGradient id="b" x1="50" x2="50" y1="0" y2="60" gradientUnits="userSpaceOnUse"><stop offset=".2" style="stop-color:#301d00;stop-opacity:1"/><stop offset="1" style="stop-color:#ffab00;stop-opacity:1"/></linearGradient></defs><path d="M2 23 77 6l17 69-76 19z" style="fill:#eee;stroke:#999;stroke-width:1"/><path d="m8 27 65-15 15 59-66 17z" style="fill:url(#a);stroke:#444;stroke-width:1"/><path d="M19 12h77v74H19z" style="fill:#eee;stroke:#999;stroke-width:1"/><path d="M25 18h65v62H25z" style="fill:url(#b);stroke:#444"/><path d="M25 48v32h65V35s-6 16-13 19c-9 4-13-2-16-8-4 8-5 12-11 14S38 45 36 38c-4 5-7 9-11 10z" style="fill:url(#a);stroke:#666"/><path d="m53 44-9 9 17 18-17 17 9 9 18-17 17 17 8-9-16-17 17-19-8-8-18 17z" style="fill:#ff3d3d;fill-opacity:.6;stroke:#730000;stroke-width:2"/></svg>