<svg width="156" height="63" viewBox="0 0 156 63" fill="none" xmlns="http://www.w3.org/2000/svg">
<path d="M9.168 57.24C8 57.24 6.928 57.032 5.952 56.616C4.976 56.2 4.128 55.608 3.408 54.84C2.688 54.056 2.128 53.136 1.728 52.08C1.344 51.024 1.152 49.864 1.152 48.6C1.152 47.4 1.36 46.288 1.776 45.264C2.208 44.224 2.8 43.312 3.552 42.528C4.304 41.744 5.176 41.136 6.168 40.704C7.16 40.272 8.232 40.056 9.384 40.056C10.2 40.056 10.992 40.184 11.76 40.44C12.544 40.68 13.248 41.024 13.872 41.472C14.512 41.904 15.032 42.4 15.432 42.96L13.704 44.76C13.24 44.296 12.768 43.912 12.288 43.608C11.824 43.288 11.344 43.048 10.848 42.888C10.368 42.728 9.88 42.648 9.384 42.648C8.6 42.648 7.864 42.8 7.176 43.104C6.504 43.392 5.912 43.8 5.4 44.328C4.904 44.856 4.512 45.488 4.224 46.224C3.936 46.944 3.792 47.736 3.792 48.6C3.792 49.512 3.928 50.344 4.2 51.096C4.488 51.832 4.888 52.464 5.4 52.992C5.912 53.52 6.52 53.928 7.224 54.216C7.944 54.488 8.736 54.624 9.6 54.624C10.128 54.624 10.648 54.552 11.16 54.408C11.672 54.264 12.152 54.056 12.6 53.784C13.048 53.512 13.456 53.192 13.824 52.824L15.12 54.936C14.752 55.368 14.248 55.76 13.608 56.112C12.984 56.464 12.28 56.744 11.496 56.952C10.728 57.144 9.952 57.24 9.168 57.24ZM23.6811 57.24C22.4491 57.24 21.3451 56.96 20.3691 56.4C19.4091 55.824 18.6491 55.048 18.0891 54.072C17.5291 53.08 17.2491 51.952 17.2491 50.688C17.2491 49.424 17.5291 48.304 18.0891 47.328C18.6491 46.336 19.4091 45.56 20.3691 45C21.3451 44.424 22.4491 44.136 23.6811 44.136C24.8971 44.136 25.9851 44.424 26.9451 45C27.9211 45.56 28.6891 46.336 29.2491 47.328C29.8091 48.304 30.0891 49.424 30.0891 50.688C30.0891 51.952 29.8091 53.08 29.2491 54.072C28.6891 55.048 27.9211 55.824 26.9451 56.4C25.9851 56.96 24.8971 57.24 23.6811 57.24ZM23.6811 54.984C24.4331 54.984 25.1051 54.8 25.6971 54.432C26.2891 54.048 26.7531 53.536 27.0891 52.896C27.4251 52.24 27.5851 51.504 27.5691 50.688C27.5851 49.856 27.4251 49.12 27.0891 48.48C26.7531 47.824 26.2891 47.312 25.6971 46.944C25.1051 46.576 24.4331 46.392 23.6811 46.392C22.9291 46.392 22.2491 46.584 21.6411 46.968C21.0491 47.336 20.5851 47.848 20.2491 48.504C19.9131 49.144 19.7531 49.872 19.7691 50.688C19.7531 51.504 19.9131 52.24 20.2491 52.896C20.5851 53.536 21.0491 54.048 21.6411 54.432C22.2491 54.8 22.9291 54.984 23.6811 54.984ZM32.7347 57V44.4H35.2307V47.088L34.7747 47.376C34.9027 46.96 35.1027 46.56 35.3747 46.176C35.6627 45.792 36.0067 45.456 36.4067 45.168C36.8227 44.864 37.2627 44.624 37.7267 44.448C38.2067 44.272 38.6947 44.184 39.1907 44.184C39.9107 44.184 40.5427 44.304 41.0867 44.544C41.6307 44.784 42.0787 45.144 42.4307 45.624C42.7827 46.104 43.0387 46.704 43.1987 47.424L42.8147 47.328L42.9827 46.92C43.1587 46.552 43.3987 46.208 43.7027 45.888C44.0227 45.552 44.3827 45.256 44.7827 45C45.1827 44.744 45.6067 44.544 46.0547 44.4C46.5027 44.256 46.9427 44.184 47.3747 44.184C48.3187 44.184 49.0947 44.376 49.7027 44.76C50.3267 45.144 50.7907 45.728 51.0947 46.512C51.4147 47.296 51.5747 48.272 51.5747 49.44V57H49.0787V49.584C49.0787 48.864 48.9827 48.28 48.7907 47.832C48.6147 47.368 48.3427 47.024 47.9747 46.8C47.6067 46.576 47.1347 46.464 46.5587 46.464C46.1107 46.464 45.6867 46.544 45.2867 46.704C44.9027 46.848 44.5667 47.056 44.2787 47.328C43.9907 47.6 43.7667 47.92 43.6067 48.288C43.4467 48.64 43.3667 49.032 43.3667 49.464V57H40.8707V49.536C40.8707 48.88 40.7747 48.328 40.5827 47.88C40.3907 47.416 40.1107 47.064 39.7427 46.824C39.3747 46.584 38.9267 46.464 38.3987 46.464C37.9507 46.464 37.5347 46.544 37.1507 46.704C36.7667 46.848 36.4307 47.056 36.1427 47.328C35.8547 47.584 35.6307 47.896 35.4707 48.264C35.3107 48.616 35.2307 49 35.2307 49.416V57H32.7347ZM54.8843 62.28V44.4H57.3803V47.28L56.9963 47.064C57.0923 46.584 57.3643 46.128 57.8123 45.696C58.2603 45.248 58.8043 44.888 59.4443 44.616C60.1003 44.328 60.7723 44.184 61.4603 44.184C62.5963 44.184 63.6043 44.464 64.4843 45.024C65.3643 45.584 66.0603 46.352 66.5723 47.328C67.0843 48.304 67.3403 49.424 67.3403 50.688C67.3403 51.936 67.0843 53.056 66.5723 54.048C66.0763 55.024 65.3883 55.8 64.5083 56.376C63.6283 56.936 62.6363 57.216 61.5323 57.216C60.7963 57.216 60.0843 57.072 59.3963 56.784C58.7083 56.48 58.1243 56.096 57.6443 55.632C57.1643 55.168 56.8683 54.688 56.7563 54.192L57.3803 53.856V62.28H54.8843ZM61.1243 54.936C61.8603 54.936 62.5163 54.752 63.0923 54.384C63.6683 54.016 64.1243 53.512 64.4603 52.872C64.7963 52.232 64.9643 51.504 64.9643 50.688C64.9643 49.872 64.7963 49.152 64.4603 48.528C64.1403 47.888 63.6923 47.384 63.1163 47.016C62.5403 46.648 61.8763 46.464 61.1243 46.464C60.3723 46.464 59.7083 46.648 59.1323 47.016C58.5563 47.368 58.1003 47.864 57.7643 48.504C57.4283 49.144 57.2603 49.872 57.2603 50.688C57.2603 51.504 57.4283 52.232 57.7643 52.872C58.1003 53.512 58.5563 54.016 59.1323 54.384C59.7083 54.752 60.3723 54.936 61.1243 54.936ZM74.8729 57.24C73.8329 57.24 72.8809 56.952 72.0169 56.376C71.1689 55.8 70.4889 55.016 69.9769 54.024C69.4649 53.032 69.2089 51.912 69.2089 50.664C69.2089 49.4 69.4649 48.28 69.9769 47.304C70.5049 46.312 71.2089 45.536 72.0889 44.976C72.9849 44.416 73.9849 44.136 75.0889 44.136C75.7449 44.136 76.3449 44.232 76.8889 44.424C77.4329 44.616 77.9049 44.888 78.3049 45.24C78.7209 45.576 79.0569 45.968 79.3129 46.416C79.5849 46.864 79.7529 47.344 79.8169 47.856L79.2649 47.664V44.4H81.7609V57H79.2649V54L79.8409 53.832C79.7449 54.264 79.5449 54.688 79.2409 55.104C78.9529 55.504 78.5769 55.864 78.1129 56.184C77.6649 56.504 77.1609 56.76 76.6009 56.952C76.0569 57.144 75.4809 57.24 74.8729 57.24ZM75.5209 54.96C76.2729 54.96 76.9369 54.776 77.5129 54.408C78.0889 54.04 78.5369 53.536 78.8569 52.896C79.1929 52.24 79.3609 51.496 79.3609 50.664C79.3609 49.848 79.1929 49.12 78.8569 48.48C78.5369 47.84 78.0889 47.336 77.5129 46.968C76.9369 46.6 76.2729 46.416 75.5209 46.416C74.7849 46.416 74.1289 46.6 73.5529 46.968C72.9929 47.336 72.5449 47.84 72.2089 48.48C71.8889 49.12 71.7289 49.848 71.7289 50.664C71.7289 51.496 71.8889 52.24 72.2089 52.896C72.5449 53.536 72.9929 54.04 73.5529 54.408C74.1289 54.776 74.7849 54.96 75.5209 54.96ZM85.2124 57V44.4H87.7084V48.36L87.4684 47.4C87.6444 46.792 87.9404 46.24 88.3564 45.744C88.7884 45.248 89.2764 44.856 89.8204 44.568C90.3804 44.28 90.9564 44.136 91.5484 44.136C91.8204 44.136 92.0764 44.16 92.3164 44.208C92.5724 44.256 92.7724 44.312 92.9164 44.376L92.2684 47.064C92.0764 46.984 91.8604 46.92 91.6204 46.872C91.3964 46.808 91.1724 46.776 90.9484 46.776C90.5164 46.776 90.1004 46.864 89.7004 47.04C89.3164 47.2 88.9724 47.432 88.6684 47.736C88.3804 48.024 88.1484 48.368 87.9724 48.768C87.7964 49.152 87.7084 49.576 87.7084 50.04V57H85.2124ZM100.233 57.24C98.937 57.24 97.785 56.968 96.777 56.424C95.785 55.864 95.001 55.104 94.425 54.144C93.865 53.184 93.585 52.08 93.585 50.832C93.585 49.84 93.745 48.936 94.065 48.12C94.385 47.304 94.825 46.6 95.385 46.008C95.961 45.4 96.641 44.936 97.425 44.616C98.225 44.28 99.089 44.112 100.017 44.112C100.833 44.112 101.593 44.272 102.297 44.592C103.001 44.896 103.609 45.32 104.121 45.864C104.649 46.408 105.049 47.056 105.321 47.808C105.609 48.544 105.745 49.352 105.729 50.232L105.705 51.288H95.409L94.857 49.32H103.569L103.209 49.728V49.152C103.161 48.624 102.985 48.152 102.681 47.736C102.377 47.32 101.993 46.992 101.529 46.752C101.065 46.512 100.561 46.392 100.017 46.392C99.153 46.392 98.425 46.56 97.833 46.896C97.241 47.216 96.793 47.696 96.489 48.336C96.185 48.96 96.033 49.736 96.033 50.664C96.033 51.544 96.217 52.312 96.585 52.968C96.953 53.608 97.473 54.104 98.145 54.456C98.817 54.808 99.593 54.984 100.473 54.984C101.097 54.984 101.673 54.88 102.201 54.672C102.745 54.464 103.329 54.088 103.953 53.544L105.201 55.296C104.817 55.68 104.345 56.016 103.785 56.304C103.241 56.592 102.657 56.824 102.033 57C101.425 57.16 100.825 57.24 100.233 57.24ZM115.766 57V40.2H118.358V54.504H126.23V57H115.766ZM129.917 57V44.4H132.389V57H129.917ZM131.117 41.616C130.589 41.616 130.181 41.48 129.893 41.208C129.605 40.936 129.461 40.552 129.461 40.056C129.461 39.592 129.605 39.216 129.893 38.928C130.197 38.64 130.605 38.496 131.117 38.496C131.645 38.496 132.053 38.632 132.341 38.904C132.629 39.176 132.773 39.56 132.773 40.056C132.773 40.52 132.621 40.896 132.317 41.184C132.029 41.472 131.629 41.616 131.117 41.616ZM140.389 57.24C139.333 57.24 138.381 57.056 137.533 56.688C136.685 56.32 135.981 55.776 135.421 55.056L137.101 53.616C137.581 54.176 138.101 54.584 138.661 54.84C139.237 55.08 139.885 55.2 140.605 55.2C140.893 55.2 141.157 55.168 141.397 55.104C141.653 55.024 141.869 54.912 142.045 54.768C142.237 54.624 142.381 54.456 142.477 54.264C142.573 54.056 142.621 53.832 142.621 53.592C142.621 53.176 142.469 52.84 142.165 52.584C142.005 52.472 141.749 52.352 141.397 52.224C141.061 52.08 140.621 51.936 140.077 51.792C139.149 51.552 138.389 51.28 137.797 50.976C137.205 50.672 136.749 50.328 136.429 49.944C136.189 49.64 136.013 49.312 135.901 48.96C135.789 48.592 135.733 48.192 135.733 47.76C135.733 47.232 135.845 46.752 136.069 46.32C136.309 45.872 136.629 45.488 137.029 45.168C137.445 44.832 137.925 44.576 138.469 44.4C139.029 44.224 139.621 44.136 140.245 44.136C140.837 44.136 141.421 44.216 141.997 44.376C142.589 44.536 143.133 44.768 143.629 45.072C144.125 45.376 144.541 45.736 144.877 46.152L143.461 47.712C143.157 47.408 142.821 47.144 142.453 46.92C142.101 46.68 141.741 46.496 141.373 46.368C141.005 46.24 140.669 46.176 140.365 46.176C140.029 46.176 139.725 46.208 139.453 46.272C139.181 46.336 138.949 46.432 138.757 46.56C138.581 46.688 138.445 46.848 138.349 47.04C138.253 47.232 138.205 47.448 138.205 47.688C138.221 47.896 138.269 48.096 138.349 48.288C138.445 48.464 138.573 48.616 138.733 48.744C138.909 48.872 139.173 49.008 139.525 49.152C139.877 49.296 140.325 49.432 140.869 49.56C141.669 49.768 142.325 50 142.837 50.256C143.365 50.496 143.781 50.776 144.085 51.096C144.405 51.4 144.629 51.752 144.757 52.152C144.885 52.552 144.949 53 144.949 53.496C144.949 54.216 144.741 54.864 144.325 55.44C143.925 56 143.381 56.44 142.693 56.76C142.005 57.08 141.237 57.24 140.389 57.24ZM149.233 57V41.184H151.705V57H149.233ZM146.617 46.8V44.4H154.633V46.8H146.617Z" fill="black"/>
<path d="M87.3609 8.52941H93.0755C93.4537 8.52941 93.7664 8.63078 94.0135 8.83352C94.2607 9.03626 94.4141 9.30269 94.4706 9.63279L95.3 17.0575H92.5082L91.8099 10.9649H87.3594V14.6207C87.3594 14.9768 87.2283 15.2679 86.9678 15.4967C86.7072 15.7254 86.3722 15.8398 85.9642 15.8398C85.5562 15.8398 85.2227 15.7254 84.9606 15.4967C84.6986 15.2679 84.5676 14.9768 84.5676 14.6207V10.9649H73.4003V14.6207C73.4003 14.9768 73.2693 15.2679 73.0088 15.4967C72.7467 15.7254 72.4132 15.8398 72.0052 15.8398C71.5972 15.8398 71.2637 15.7254 71.0016 15.4967C70.7396 15.2679 70.61 14.9768 70.61 14.6207V10.9649H66.1595L63.935 30.4592H78.984V32.896H62.3657C61.9577 32.896 61.6167 32.7621 61.3412 32.4957C61.0658 32.2293 60.9571 31.9187 61.0152 31.5626L63.5002 9.63409C63.5583 9.30399 63.7117 9.03756 63.9574 8.83482C64.2045 8.63208 64.5172 8.53071 64.8954 8.53071H70.61V7.69246C70.6681 5.50909 71.4826 3.69482 73.0534 2.24704C74.6228 0.800567 76.6001 0.0506852 78.9854 0C81.3708 0.0506852 83.3481 0.800567 84.919 2.24704C86.4883 3.69352 87.3028 5.50909 87.3623 7.69246V8.53071L87.3609 8.52941ZM84.5691 8.52941V7.69116C84.5408 6.19269 83.9943 4.94896 82.9327 3.95994C81.8711 2.96963 80.5548 2.46278 78.9854 2.43679C77.4146 2.46148 76.0983 2.96963 75.0382 3.95994C73.9781 4.95026 73.4316 6.19399 73.4018 7.69116V8.52941H84.5691Z" fill="black"/>
<path d="M89.4649 23.0355L92.6483 25.8531H92.6498C93.0578 26.1819 93.5149 26.2833 94.0241 26.1572C94.5334 26.0312 94.8535 25.7452 94.9845 25.3008C95.117 24.8576 95.0069 24.4703 94.6584 24.1402L89.0748 19.2666C88.7845 19.0132 88.4495 18.8858 88.0713 18.8858C87.6931 18.8858 87.3595 19.0119 87.0677 19.2666L81.4841 24.1402C81.1342 24.469 81.0255 24.8563 81.158 25.3008C81.2905 25.7452 81.6107 26.0312 82.1184 26.1572C82.6261 26.2846 83.0832 26.1832 83.4912 25.8531L86.6746 23.0355V31.7937C86.6746 32.1498 86.8042 32.4409 87.0662 32.6696C87.3283 32.897 87.6618 33.0114 88.0698 33.0114C88.4778 33.0114 88.8113 32.8983 89.0733 32.6696C89.3339 32.4409 89.4649 32.1498 89.4649 31.7937V23.0355Z" fill="#ADB1F4"/>
</svg>
