<svg width="21" height="22" viewBox="0 0 21 22" fill="none" xmlns="http://www.w3.org/2000/svg">
<path opacity="0.6" d="M1.54056 5H3.50452H19.2162" stroke="#FC5050" stroke-width="2" stroke-linecap="round" stroke-linejoin="round"/>
<path fill-rule="evenodd" clip-rule="evenodd" d="M7.73921 2.28644C7.92144 2.10086 8.1647 2 8.41443 2H12.3424C12.5921 2 12.8354 2.10086 13.0176 2.28644C13.2004 2.47263 13.3063 2.72898 13.3063 3V4H15.3063V3C15.3063 2.21016 14.9984 1.44908 14.4446 0.885137C13.8902 0.320572 13.1344 0 12.3424 0H8.41443C7.62241 0 6.86659 0.320572 6.3122 0.885137C5.75841 1.44908 5.45047 2.21016 5.45047 3V4H7.45047V3C7.45047 2.72898 7.55637 2.47263 7.73921 2.28644ZM2.50452 6V19C2.50452 19.7898 2.81246 20.5509 3.36625 21.1149C3.92064 21.6794 4.67647 22 5.46849 22H15.2883C16.0803 22 16.8362 21.6794 17.3905 21.1149C17.9443 20.5509 18.2523 19.7898 18.2523 19V6H16.2523V19C16.2523 19.271 16.1464 19.5274 15.9635 19.7136C15.7813 19.8991 15.538 20 15.2883 20H5.46849C5.21876 20 4.9755 19.8991 4.79326 19.7136C4.61042 19.5274 4.50452 19.271 4.50452 19V6H3.50452H2.50452Z" fill="#FC5050"/>
</svg>
