<svg xmlns="http://www.w3.org/2000/svg" xml:space="preserve" viewBox="0 0 512 512"><path d="M467.163 512H44.837c-7.586 0-13.734-6.149-13.734-13.734V13.734C31.102 6.149 37.251 0 44.837 0h422.326c7.586 0 13.734 6.149 13.734 13.734v252.338c0 7.586-6.149 13.734-13.734 13.734s-13.734-6.149-13.734-13.734V27.469H58.571v457.062h394.857V349.393c0-7.586 6.149-13.734 13.734-13.734s13.734 6.149 13.734 13.734v148.872c.002 7.586-6.147 13.735-13.733 13.735z" style="fill:#2d527c"/><path d="M214.793 67.265h192.283v54.481H214.793z" style="fill:#cee8fa"/><path d="M407.079 135.48H214.796c-7.586 0-13.734-6.149-13.734-13.734v-54.48c0-7.586 6.149-13.734 13.734-13.734h192.283c7.586 0 13.734 6.149 13.734 13.734v54.481c0 7.584-6.149 13.733-13.734 13.733zM228.53 108.011h164.814v-27.01H228.53v27.01z" style="fill:#2d527c"/><path d="M214.793 174.923h192.283v54.481H214.793z" style="fill:#cee8fa"/><path d="M407.079 243.143H214.796c-7.586 0-13.734-6.149-13.734-13.734v-54.481c0-7.586 6.149-13.734 13.734-13.734h192.283c7.586 0 13.734 6.149 13.734 13.734v54.481c0 7.585-6.149 13.734-13.734 13.734zM228.53 215.674h164.814v-27.012H228.53v27.012z" style="fill:#2d527c"/><path d="M214.793 282.587h192.283v54.481H214.793z" style="fill:#cee8fa"/><path d="M407.079 350.806H214.796c-7.586 0-13.734-6.149-13.734-13.734v-54.481c0-7.586 6.149-13.734 13.734-13.734h192.283c7.586 0 13.734 6.149 13.734 13.734v54.481c0 7.586-6.149 13.734-13.734 13.734zM228.53 323.337h164.814v-27.012H228.53v27.012zM407.079 458.47H214.796c-7.586 0-13.734-6.149-13.734-13.734s6.149-13.734 13.734-13.734h178.548V403.99H214.796c-7.586 0-13.734-6.149-13.734-13.734s6.149-13.734 13.734-13.734h192.283c7.586 0 13.734 6.149 13.734 13.734v54.481c0 7.584-6.149 13.733-13.734 13.733zM159.858 135.48H104.92c-7.586 0-13.734-6.149-13.734-13.734v-54.48c0-7.586 6.149-13.734 13.734-13.734h54.938c7.586 0 13.734 6.149 13.734 13.734v54.481c0 7.584-6.149 13.733-13.734 13.733zm-41.204-27.469h27.469v-27.01h-27.469v27.01zM159.858 243.143H104.92c-7.586 0-13.734-6.149-13.734-13.734v-54.481c0-7.586 6.149-13.734 13.734-13.734h54.938c7.586 0 13.734 6.149 13.734 13.734v54.481c0 7.585-6.149 13.734-13.734 13.734zm-41.204-27.469h27.469v-27.012h-27.469v27.012zM159.858 350.806H104.92c-7.586 0-13.734-6.149-13.734-13.734v-54.481c0-7.586 6.149-13.734 13.734-13.734h54.938c7.586 0 13.734 6.149 13.734 13.734v54.481c0 7.586-6.149 13.734-13.734 13.734zm-41.204-27.469h27.469v-27.012h-27.469v27.012z" style="fill:#2d527c"/><path d="M104.917 390.252h54.938v54.481h-54.938z" style="fill:#cee8fa"/><path d="M159.858 458.47H104.92c-7.586 0-13.734-6.149-13.734-13.734v-54.481c0-7.586 6.149-13.734 13.734-13.734h54.938c7.586 0 13.734 6.149 13.734 13.734v54.481c0 7.585-6.149 13.734-13.734 13.734zm-41.204-27.469h27.469v-27.012h-27.469v27.012z" style="fill:#2d527c"/></svg>