<svg width="21" height="22" viewBox="0 0 21 22" fill="none" xmlns="http://www.w3.org/2000/svg">
<path d="M18.2638 11.6823C18.3081 11.3498 18.3303 11.0062 18.3303 10.6404C18.3303 10.2857 18.3081 9.93104 18.2527 9.59853L20.5027 7.84729C20.7022 7.69212 20.7576 7.39286 20.6357 7.17118L18.5076 3.49138C18.3746 3.24754 18.0975 3.16995 17.8537 3.24754L15.2047 4.31158C14.6505 3.8904 14.0631 3.53572 13.4091 3.26971L13.0101 0.454433C12.9658 0.188424 12.7441 0 12.4781 0H8.22192C7.95591 0 7.74532 0.188424 7.70098 0.454433L7.30197 3.26971C6.64803 3.53572 6.04951 3.90148 5.5064 4.31158L2.85739 3.24754C2.61355 3.15887 2.33645 3.24754 2.20345 3.49138L0.0864536 7.17118C-0.0465513 7.40394 -0.00221649 7.69212 0.219458 7.84729L2.46946 9.59853C2.41404 9.93104 2.3697 10.2968 2.3697 10.6404C2.3697 10.984 2.39187 11.3498 2.44729 11.6823L0.197291 13.4335C-0.00221647 13.5887 -0.0576351 13.8879 0.0642861 14.1096L2.19236 17.7894C2.32537 18.0333 2.60246 18.1108 2.84631 18.0333L5.49532 16.9692C6.04951 17.3904 6.63695 17.7451 7.29089 18.0111L7.6899 20.8264C7.74532 21.0924 7.95591 21.2808 8.22192 21.2808H12.4781C12.7441 21.2808 12.9658 21.0924 12.999 20.8264L13.398 18.0111C14.052 17.7451 14.6505 17.3904 15.1936 16.9692L17.8426 18.0333C18.0865 18.1219 18.3635 18.0333 18.4966 17.7894L20.6246 14.1096C20.7576 13.8658 20.7022 13.5887 20.4916 13.4335L18.2638 11.6823ZM10.35 14.6305C8.15542 14.6305 6.35985 12.835 6.35985 10.6404C6.35985 8.44582 8.15542 6.65025 10.35 6.65025C12.5446 6.65025 14.3401 8.44582 14.3401 10.6404C14.3401 12.835 12.5446 14.6305 10.35 14.6305Z" fill="#ADB1F4"/>
</svg>
