<svg xmlns="http://www.w3.org/2000/svg" width="667" height="733" fill="none"><g clip-path="url(#a)"><path fill="#C1C4F7" d="M616.696.03H50.03a48.333 48.333 0 0 0-50 50v633.333a48.33 48.33 0 0 0 30.594 46.668 48.32 48.32 0 0 0 19.406 3.332h566.666a48.324 48.324 0 0 0 35.874-14.127 48.34 48.34 0 0 0 14.126-35.873V50.03A48.336 48.336 0 0 0 636.103 3.36 48.338 48.338 0 0 0 616.696.03Zm-283.333 50a100 100 0 1 1 0 200.001 100 100 0 0 1 0-200.001Zm-183.333 300a300 300 0 0 1 183.333-66.667 299.996 299.996 0 0 1 183.333 66.667v50a33.33 33.33 0 0 1-33.333 33.333h-300a33.334 33.334 0 0 1-33.333-33.333v-50Zm16.666 316.666a33.34 33.34 0 0 1-18.519-5.617 33.334 33.334 0 1 1 18.519 5.617Zm0-100a33.34 33.34 0 0 1-18.519-5.617 33.334 33.334 0 1 1 18.519 5.617Zm333.334 100h-200a33.328 33.328 0 0 1-23.57-9.763 33.33 33.33 0 0 1 0-47.14 33.332 33.332 0 0 1 23.57-9.763h200a33.334 33.334 0 0 1 0 66.666Zm0-100h-200a33.328 33.328 0 0 1-23.57-9.763 33.33 33.33 0 0 1 0-47.14 33.332 33.332 0 0 1 23.57-9.763h200a33.334 33.334 0 0 1 0 66.666Z"/></g><defs><clipPath id="a"><rect width="667" height="733" fill="#fff" rx="60"/></clipPath></defs></svg>